<svg width="2525" height="564" viewBox="0 0 2525 564" fill="none" xmlns="http://www.w3.org/2000/svg">
<path d="M626.156 281.024C626.156 252.362 632.357 226.869 644.759 204.545C657.161 181.946 674.386 164.446 696.434 152.044C718.758 139.366 743.975 133.027 772.086 133.027C806.536 133.027 836.025 142.122 860.553 160.312C885.081 178.501 901.479 203.305 909.747 234.723H832.029C826.241 222.597 817.973 213.364 807.225 207.026C796.752 200.687 784.763 197.517 771.259 197.517C749.487 197.517 731.849 205.096 718.344 220.254C704.84 235.412 698.088 255.669 698.088 281.024C698.088 306.379 704.84 326.635 718.344 341.793C731.849 356.951 749.487 364.53 771.259 364.53C784.763 364.53 796.752 361.361 807.225 355.022C817.973 348.683 826.241 339.451 832.029 327.324H909.747C901.479 358.743 885.081 383.547 860.553 401.736C836.025 419.65 806.536 428.607 772.086 428.607C743.975 428.607 718.758 422.406 696.434 410.004C674.386 397.326 657.161 379.826 644.759 357.502C632.357 335.179 626.156 309.686 626.156 281.024Z" fill="url(#paint0_linear_7186_45897)"/>
<path d="M1172.55 195.864V426.54H1101.86V395.122C1094.7 405.319 1084.91 413.587 1072.51 419.926C1060.38 425.989 1046.88 429.02 1032 429.02C1014.36 429.02 998.787 425.162 985.283 417.445C971.779 409.453 961.306 398.015 953.865 383.133C946.424 368.251 942.703 350.75 942.703 330.632V195.864H1012.98V321.123C1012.98 336.557 1016.98 348.546 1024.97 357.089C1032.96 365.633 1043.71 369.904 1057.21 369.904C1070.99 369.904 1081.88 365.633 1089.87 357.089C1097.86 348.546 1101.86 336.557 1101.86 321.123V195.864H1172.55Z" fill="url(#paint1_linear_7186_45897)"/>
<path d="M1285.75 120.625V426.54H1215.06V120.625H1285.75Z" fill="url(#paint2_linear_7186_45897)"/>
<path d="M1457.28 366.597V426.54H1421.31C1395.68 426.54 1375.7 420.339 1361.37 407.937C1347.04 395.259 1339.87 374.727 1339.87 346.341V254.566H1311.76V195.864H1339.87V139.642H1410.57V195.864H1456.87V254.566H1410.57V347.168C1410.57 354.057 1412.22 359.018 1415.53 362.05C1418.83 365.081 1424.35 366.597 1432.06 366.597H1457.28Z" fill="url(#paint3_linear_7186_45897)"/>
<path d="M1716.17 195.864V426.54H1645.48V395.122C1638.31 405.319 1628.53 413.587 1616.13 419.926C1604 425.989 1590.5 429.02 1575.62 429.02C1557.98 429.02 1542.41 425.162 1528.9 417.445C1515.4 409.453 1504.92 398.015 1497.48 383.133C1490.04 368.251 1486.32 350.75 1486.32 330.632V195.864H1556.6V321.123C1556.6 336.557 1560.59 348.546 1568.59 357.089C1576.58 365.633 1587.33 369.904 1600.83 369.904C1614.61 369.904 1625.5 365.633 1633.49 357.089C1641.48 348.546 1645.48 336.557 1645.48 321.123V195.864H1716.17Z" fill="url(#paint4_linear_7186_45897)"/>
<path d="M1829.37 234.31C1837.64 221.632 1847.97 211.711 1860.38 204.545C1872.78 197.104 1886.56 193.384 1901.71 193.384V268.209H1882.29C1864.65 268.209 1851.42 272.067 1842.6 279.784C1833.78 287.225 1829.37 300.454 1829.37 319.47V426.54H1758.68V195.864H1829.37V234.31Z" fill="url(#paint5_linear_7186_45897)"/>
<path d="M2144.68 307.481C2144.68 314.096 2144.27 320.986 2143.44 328.151H1983.46C1984.56 342.482 1989.11 353.506 1997.1 361.223C2005.37 368.664 2015.43 372.385 2027.28 372.385C2044.92 372.385 2057.18 364.944 2064.07 350.061H2139.31C2135.45 365.219 2128.42 378.861 2118.23 390.988C2108.3 403.114 2095.76 412.622 2080.61 419.512C2065.45 426.402 2048.5 429.847 2029.76 429.847C2007.16 429.847 1987.04 425.024 1969.4 415.378C1951.76 405.732 1937.98 391.952 1928.06 374.038C1918.14 356.124 1913.18 335.179 1913.18 311.202C1913.18 287.225 1918 266.279 1927.65 248.365C1937.57 230.452 1951.35 216.672 1968.99 207.026C1986.63 197.38 2006.88 192.557 2029.76 192.557C2052.08 192.557 2071.92 197.242 2089.29 206.612C2106.65 215.983 2120.15 229.349 2129.8 246.712C2139.72 264.075 2144.68 284.331 2144.68 307.481ZM2072.34 288.878C2072.34 276.752 2068.2 267.106 2059.94 259.941C2051.67 252.775 2041.33 249.192 2028.93 249.192C2017.08 249.192 2007.02 252.637 1998.75 259.527C1990.76 266.417 1985.8 276.201 1983.87 288.878H2072.34Z" fill="url(#paint6_linear_7186_45897)"/>
<path d="M2159.65 310.788C2159.65 287.087 2164.06 266.279 2172.88 248.365C2181.98 230.452 2194.24 216.672 2209.67 207.026C2225.11 197.38 2242.33 192.557 2261.35 192.557C2276.51 192.557 2290.29 195.726 2302.69 202.065C2315.37 208.404 2325.29 216.947 2332.45 227.696V120.625H2403.14V426.54H2332.45V393.468C2325.84 404.492 2316.33 413.311 2303.93 419.926C2291.8 426.54 2277.61 429.847 2261.35 429.847C2242.33 429.847 2225.11 425.024 2209.67 415.378C2194.24 405.457 2181.98 391.539 2172.88 373.625C2164.06 355.435 2159.65 334.49 2159.65 310.788ZM2332.45 311.202C2332.45 293.564 2327.49 279.646 2317.57 269.449C2307.92 259.252 2296.07 254.153 2282.02 254.153C2267.96 254.153 2255.97 259.252 2246.05 269.449C2236.41 279.37 2231.58 293.15 2231.58 310.788C2231.58 328.427 2236.41 342.482 2246.05 352.955C2255.97 363.152 2267.96 368.251 2282.02 368.251C2296.07 368.251 2307.92 363.152 2317.57 352.955C2327.49 342.758 2332.45 328.84 2332.45 311.202Z" fill="url(#paint7_linear_7186_45897)"/>
<path d="M0 191.442L360.444 0L290.937 191.442L564 564L75.9613 362.664L0 191.442Z" fill="url(#paint8_linear_7186_45897)"/>
<rect x="2446.02" y="347.701" width="78.8387" height="78.8387" fill="url(#paint9_linear_7186_45897)"/>
<defs>
<linearGradient id="paint0_linear_7186_45897" x1="474.601" y1="146.669" x2="554.825" y2="689.337" gradientUnits="userSpaceOnUse">
<stop stop-color="#F6A200"/>
<stop offset="1" stop-color="#FF6B00"/>
</linearGradient>
<linearGradient id="paint1_linear_7186_45897" x1="474.601" y1="146.669" x2="554.825" y2="689.337" gradientUnits="userSpaceOnUse">
<stop stop-color="#F6A200"/>
<stop offset="1" stop-color="#FF6B00"/>
</linearGradient>
<linearGradient id="paint2_linear_7186_45897" x1="474.601" y1="146.669" x2="554.825" y2="689.337" gradientUnits="userSpaceOnUse">
<stop stop-color="#F6A200"/>
<stop offset="1" stop-color="#FF6B00"/>
</linearGradient>
<linearGradient id="paint3_linear_7186_45897" x1="474.601" y1="146.669" x2="554.825" y2="689.337" gradientUnits="userSpaceOnUse">
<stop stop-color="#F6A200"/>
<stop offset="1" stop-color="#FF6B00"/>
</linearGradient>
<linearGradient id="paint4_linear_7186_45897" x1="474.601" y1="146.669" x2="554.825" y2="689.337" gradientUnits="userSpaceOnUse">
<stop stop-color="#F6A200"/>
<stop offset="1" stop-color="#FF6B00"/>
</linearGradient>
<linearGradient id="paint5_linear_7186_45897" x1="474.601" y1="146.669" x2="554.825" y2="689.337" gradientUnits="userSpaceOnUse">
<stop stop-color="#F6A200"/>
<stop offset="1" stop-color="#FF6B00"/>
</linearGradient>
<linearGradient id="paint6_linear_7186_45897" x1="474.601" y1="146.669" x2="554.825" y2="689.337" gradientUnits="userSpaceOnUse">
<stop stop-color="#F6A200"/>
<stop offset="1" stop-color="#FF6B00"/>
</linearGradient>
<linearGradient id="paint7_linear_7186_45897" x1="474.601" y1="146.669" x2="554.825" y2="689.337" gradientUnits="userSpaceOnUse">
<stop stop-color="#F6A200"/>
<stop offset="1" stop-color="#FF6B00"/>
</linearGradient>
<linearGradient id="paint8_linear_7186_45897" x1="-48.1023" y1="47.5011" x2="450.96" y2="634.951" gradientUnits="userSpaceOnUse">
<stop stop-color="#F6A200"/>
<stop offset="1" stop-color="#FF6B00"/>
</linearGradient>
<linearGradient id="paint9_linear_7186_45897" x1="2439.3" y1="354.341" x2="2509.06" y2="436.457" gradientUnits="userSpaceOnUse">
<stop stop-color="#F6A200"/>
<stop offset="1" stop-color="#FF6B00"/>
</linearGradient>
</defs>
</svg>
